<svg width="16" height="18" viewBox="0 0 16 18" fill="none" xmlns="http://www.w3.org/2000/svg">
<path fill-rule="evenodd" clip-rule="evenodd" d="M0.396 1.29683C0.422808 1.06968 0.502289 0.851921 0.628113 0.660908C0.753937 0.469894 0.922628 0.310902 1.12075 0.196594C1.31887 0.0822867 1.54094 0.0158226 1.76929 0.00249575C1.99763 -0.0108311 2.22593 0.0293475 2.436 0.119832C3.498 0.573832 5.878 1.65283 8.898 3.39583C11.919 5.13983 14.044 6.66283 14.967 7.35383C15.755 7.94483 15.757 9.11683 14.968 9.70983C14.054 10.3968 11.955 11.8998 8.898 13.6658C5.838 15.4318 3.486 16.4978 2.434 16.9458C1.528 17.3328 0.514 16.7458 0.396 15.7688C0.258 14.6268 0 12.0338 0 8.53183C0 5.03183 0.257 2.43983 0.396 1.29683Z" fill="white"/>
</svg>
